<?xml version="1.0" encoding="utf-8"?>
<svg viewBox="0 0 1440 800" width="1440" height="800" xmlns="http://www.w3.org/2000/svg">
  <path fill-opacity="1" d="M -0.706 430.146 C -5.243 438.691 149.685 484.648 288.452 472.481 C 364.981 465.771 482.635 438.504 590.232 352.423 C 691.701 271.245 839.029 52.926 1001.773 0.686 C 881.773 0.686 840 0 720 0 C 600 0 480 0 360 0 C 240 0 120 0 60 0 L 0 0 C 0 0 -0.895 407.108 -0.706 430.146 Z" style="fill: rgb(196, 224, 255);"/>
  <path d="M 445.87 417.2 C 445.87 423.466 445.598 429.668 445.065 435.796 C 386.029 458.708 330.911 468.758 288.452 472.481 C 184.647 481.583 71.798 458.159 23.423 442.201 C 22.459 434.001 21.964 425.659 21.964 417.2 C 21.964 300.142 116.859 205.247 233.917 205.247 C 350.975 205.247 445.87 300.142 445.87 417.2 Z" style="fill: rgb(255, 199, 120);"/>
</svg>