<?xml version="1.0" encoding="utf-8"?>
<svg viewBox="0 0 1440 800" width="1440" height="800" xmlns="http://www.w3.org/2000/svg">
  <path fill-opacity="1" d="M 0 273.368 L 60 309.76 C 120 346.835 240 418.594 360 446.444 C 480 473.27 600 456.183 720 391.771 C 840 328.042 943.758 210.166 1035.627 132.507 C 1139.473 44.723 1163.095 30.802 1218.024 -0.028 C 1218.024 -0.028 1200 0 1080 0 C 960 0 840 0 720 0 C 600 0 480 0 360 0 C 240 0 120 0 60 0 L 0 0 L 0 273.368 Z" style="fill: rgb(194, 217, 255);"/>
  <path d="M 677.99 354.51 C 677.99 375.722 675.224 396.287 670.033 415.866 C 566.688 460.08 463.344 469.547 360 446.444 C 305.817 433.869 251.635 412.342 202.975 389.099 C 201.336 377.806 200.488 366.257 200.488 354.51 C 200.488 222.651 307.38 115.759 439.239 115.759 C 571.098 115.759 677.99 222.651 677.99 354.51 Z" style="fill: rgb(255, 199, 120);"/>
</svg>